<svg width="30" height="27" viewBox="0 0 30 27" fill="none" xmlns="http://www.w3.org/2000/svg">
<g clip-path="url(#clip0_2_429)">
<path d="M13.1927 1.82828C13.5104 1.21369 13.2708 0.458484 12.6615 0.140775C12.0521 -0.176933 11.2917 0.0626504 10.974 0.672025L6.125 10.0001H1.66667C0.744792 10.0001 0 10.7449 0 11.6668C0 12.5887 0.744792 13.3335 1.66667 13.3335L4.36979 24.1408C4.73958 25.6252 6.07292 26.6668 7.60417 26.6668H22.3958C23.9271 26.6668 25.2604 25.6252 25.6302 24.1408L28.3333 13.3335C29.2552 13.3335 30 12.5887 30 11.6668C30 10.7449 29.2552 10.0001 28.3333 10.0001H23.875L19.026 0.672025C18.7083 0.0626504 17.9531 -0.176933 17.3385 0.140775C16.724 0.458484 16.4896 1.21369 16.8073 1.82828L21.0573 10.0001H8.94271L13.1927 1.82828ZM10 15.8335V20.8335C10 21.2918 9.625 21.6668 9.16667 21.6668C8.70833 21.6668 8.33333 21.2918 8.33333 20.8335V15.8335C8.33333 15.3751 8.70833 15.0001 9.16667 15.0001C9.625 15.0001 10 15.3751 10 15.8335ZM15 15.0001C15.4583 15.0001 15.8333 15.3751 15.8333 15.8335V20.8335C15.8333 21.2918 15.4583 21.6668 15 21.6668C14.5417 21.6668 14.1667 21.2918 14.1667 20.8335V15.8335C14.1667 15.3751 14.5417 15.0001 15 15.0001ZM21.6667 15.8335V20.8335C21.6667 21.2918 21.2917 21.6668 20.8333 21.6668C20.375 21.6668 20 21.2918 20 20.8335V15.8335C20 15.3751 20.375 15.0001 20.8333 15.0001C21.2917 15.0001 21.6667 15.3751 21.6667 15.8335Z" fill="black"/>
</g>
<defs>
<clipPath id="clip0_2_429">
<rect width="30" height="26.6667" fill="white"/>
</clipPath>
</defs>
</svg>
